<svg xmlns="http://www.w3.org/2000/svg" viewBox="0 0 422 1424" width="422" height="1424">
  <path d="M 0,0 L 405.00,0 L 405.00,2.50 L 405.00,3.00 L 405.00,3.50 L 405.00,4.00 L 405.00,4.50 L 405.00,5.00 L 405.00,6.00 L 405.00,7.00 L 404.91,8.00 L 404.82,9.00 L 404.73,10.00 L 404.64,11.00 L 404.55,12.00 L 404.45,13.00 L 404.36,14.00 L 404.27,15.00 L 404.18,16.00 L 404.09,17.00 L 404.00,18.00 L 404.00,19.00 L 404.00,20.00 L 404.00,21.00 L 404.00,22.00 L 404.00,23.00 L 404.00,24.00 L 404.00,25.00 L 404.00,26.00 L 404.00,27.00 L 404.00,28.00 L 404.00,29.00 L 404.00,30.00 L 404.00,31.00 L 404.00,32.00 L 404.00,33.00 L 404.00,34.00 L 404.00,35.00 L 404.00,36.00 L 404.00,37.00 L 404.00,38.00 L 404.00,39.00 L 404.00,40.00 L 404.00,41.00 L 404.00,42.00 L 404.00,43.00 L 404.00,44.00 L 404.00,45.00 L 404.00,46.00 L 404.09,47.00 L 404.18,48.00 L 404.27,49.00 L 404.36,50.00 L 404.45,51.00 L 404.55,52.00 L 404.64,53.00 L 404.73,54.00 L 404.82,55.00 L 404.91,56.00 L 405.00,57.00 L 405.00,58.00 L 405.00,59.00 L 405.00,60.00 L 405.00,61.00 L 405.00,62.00 L 405.00,63.00 L 405.00,64.00 L 405.00,65.00 L 405.00,66.00 L 405.00,67.00 L 405.00,68.00 L 405.00,69.00 L 405.00,70.00 L 405.00,71.00 L 405.00,72.00 L 405.00,73.00 L 405.00,74.00 L 405.09,75.00 L 405.18,76.00 L 405.27,77.00 L 405.36,78.00 L 405.45,79.00 L 405.55,80.00 L 405.64,81.00 L 405.73,82.00 L 405.82,83.00 L 405.91,84.00 L 406.00,85.00 L 406.00,86.00 L 406.00,87.00 L 406.00,88.00 L 406.00,89.00 L 406.00,90.00 L 406.00,91.00 L 406.00,92.00 L 406.00,93.00 L 406.09,94.00 L 406.18,95.00 L 406.27,96.00 L 406.36,97.00 L 406.45,98.00 L 406.55,99.00 L 406.64,100.00 L 406.73,101.00 L 406.82,102.00 L 406.91,103.00 L 407.00,104.00 L 407.00,105.00 L 407.00,106.00 L 407.00,107.00 L 407.00,108.00 L 407.00,109.00 L 407.00,110.00 L 407.09,111.00 L 407.18,112.00 L 407.27,113.00 L 407.36,114.00 L 407.45,115.00 L 407.55,116.00 L 407.64,117.00 L 407.73,118.00 L 407.82,119.00 L 407.91,120.00 L 408.00,121.00 L 408.00,122.00 L 408.00,123.00 L 408.00,124.00 L 408.00,125.00 L 408.09,126.00 L 408.18,127.00 L 408.27,128.00 L 408.36,129.00 L 408.45,130.00 L 408.55,131.00 L 408.64,132.00 L 408.73,133.00 L 408.82,134.00 L 408.91,135.00 L 409.00,136.00 L 409.00,137.00 L 409.00,138.00 L 409.00,139.00 L 409.00,140.00 L 409.00,141.00 L 409.09,142.00 L 409.18,143.00 L 409.27,144.00 L 409.36,145.00 L 409.45,146.00 L 409.55,147.00 L 409.64,148.00 L 409.73,149.00 L 409.82,150.00 L 409.91,151.00 L 410.00,152.00 L 410.00,153.00 L 410.00,154.00 L 410.00,155.00 L 410.00,156.00 L 410.09,157.00 L 410.18,158.00 L 410.27,159.00 L 410.36,160.00 L 410.45,161.00 L 410.55,162.00 L 410.64,163.00 L 410.73,164.00 L 410.82,165.00 L 410.91,166.00 L 411.00,167.00 L 411.00,168.00 L 411.00,169.00 L 411.00,170.00 L 411.00,171.00 L 411.00,172.00 L 411.00,173.00 L 411.09,174.00 L 411.18,175.00 L 411.27,176.00 L 411.36,177.00 L 411.45,178.00 L 411.55,179.00 L 411.64,180.00 L 411.73,181.00 L 411.82,182.00 L 411.91,183.00 L 412.00,184.00 L 412.00,185.00 L 412.00,186.00 L 412.00,187.00 L 412.00,188.00 L 412.00,189.00 L 412.00,190.00 L 412.00,191.00 L 412.00,192.00 L 412.00,193.00 L 412.00,194.00 L 412.00,195.00 L 412.00,196.00 L 412.00,197.00 L 412.00,198.00 L 412.00,199.00 L 412.00,200.00 L 412.00,201.00 L 412.00,202.00 L 412.00,203.00 L 412.00,204.00 L 412.00,205.00 L 412.00,206.00 L 412.00,207.00 L 412.00,208.00 L 412.00,209.00 L 412.00,210.00 L 412.00,211.00 L 412.00,212.00 L 412.00,213.00 L 412.00,214.00 L 412.00,215.00 L 412.00,216.00 L 412.00,217.00 L 412.00,218.00 L 412.00,219.00 L 412.00,220.00 L 412.00,221.00 L 412.00,222.00 L 412.00,223.00 L 412.00,224.00 L 412.00,225.00 L 412.00,226.00 L 412.00,227.00 L 412.00,228.00 L 412.00,229.00 L 412.00,230.00 L 412.00,231.00 L 412.00,232.00 L 412.00,233.00 L 412.00,234.00 L 412.00,235.00 L 412.00,236.00 L 412.00,237.00 L 412.00,238.00 L 412.00,239.00 L 412.00,240.00 L 412.00,241.00 L 412.00,242.00 L 412.00,243.00 L 412.00,244.00 L 412.00,245.00 L 412.00,246.00 L 412.00,247.00 L 412.00,248.00 L 412.00,249.00 L 412.00,250.00 L 412.00,251.00 L 412.00,252.00 L 412.09,253.00 L 412.18,254.00 L 412.27,255.00 L 412.36,256.00 L 412.45,257.00 L 412.55,258.00 L 412.64,259.00 L 412.73,260.00 L 412.82,261.00 L 412.91,262.00 L 413.00,263.00 L 413.00,264.00 L 413.00,265.00 L 413.00,266.00 L 413.00,267.00 L 413.00,268.00 L 413.00,269.00 L 413.00,270.00 L 413.00,271.00 L 413.00,272.00 L 413.00,273.00 L 413.00,274.00 L 413.00,275.00 L 413.00,276.00 L 413.00,277.00 L 413.00,278.00 L 413.00,279.00 L 413.00,280.00 L 413.00,281.00 L 413.00,282.00 L 413.00,283.00 L 413.00,284.00 L 413.00,285.00 L 413.00,286.00 L 413.00,287.00 L 413.00,288.00 L 413.00,289.00 L 413.00,290.00 L 413.00,291.00 L 413.00,292.00 L 413.00,293.00 L 413.00,294.00 L 413.00,295.00 L 413.00,296.00 L 413.00,297.00 L 413.00,298.00 L 413.00,299.00 L 413.00,300.00 L 413.00,301.00 L 413.00,302.00 L 413.00,303.00 L 413.00,304.00 L 413.00,305.00 L 413.00,306.00 L 413.00,307.00 L 413.00,308.00 L 413.00,309.00 L 412.91,310.00 L 412.82,311.00 L 412.73,312.00 L 412.64,313.00 L 412.55,314.00 L 412.45,315.00 L 412.36,316.00 L 412.27,317.00 L 412.18,318.00 L 412.09,319.00 L 412.00,320.00 L 412.00,321.00 L 412.00,322.00 L 412.00,323.00 L 412.00,324.00 L 412.00,325.00 L 412.00,326.00 L 412.00,327.00 L 412.00,328.00 L 412.00,329.00 L 412.00,330.00 L 412.00,331.00 L 412.00,332.00 L 412.00,333.00 L 412.00,334.00 L 412.00,335.00 L 412.00,336.00 L 412.00,337.00 L 412.00,338.00 L 412.00,339.00 L 412.00,340.00 L 412.00,341.00 L 412.00,342.00 L 412.00,343.00 L 411.91,344.00 L 411.82,345.00 L 411.73,346.00 L 411.64,347.00 L 411.55,348.00 L 411.45,349.00 L 411.36,350.00 L 411.27,351.00 L 411.18,352.00 L 411.09,353.00 L 411.00,354.00 L 411.00,355.00 L 411.00,356.00 L 411.00,357.00 L 411.00,358.00 L 411.00,359.00 L 411.00,360.00 L 411.00,361.00 L 411.00,362.00 L 411.00,363.00 L 411.00,364.00 L 411.00,365.00 L 411.00,366.00 L 411.00,367.00 L 411.00,368.00 L 411.00,369.00 L 411.00,370.00 L 410.91,371.00 L 410.82,372.00 L 410.73,373.00 L 410.64,374.00 L 410.55,375.00 L 410.45,376.00 L 410.36,377.00 L 410.27,378.00 L 410.18,379.00 L 410.09,380.00 L 410.00,381.00 L 410.00,382.00 L 410.00,383.00 L 410.00,384.00 L 410.00,385.00 L 410.00,386.00 L 410.00,387.00 L 410.00,388.00 L 410.00,389.00 L 410.00,390.00 L 410.00,391.00 L 410.00,392.00 L 410.00,393.00 L 410.00,394.00 L 410.00,395.00 L 409.91,396.00 L 409.82,397.00 L 409.73,398.00 L 409.64,399.00 L 409.55,400.00 L 409.45,401.00 L 409.36,402.00 L 409.27,403.00 L 409.18,404.00 L 409.09,405.00 L 409.00,406.00 L 409.00,407.00 L 409.00,408.00 L 409.00,409.00 L 409.00,410.00 L 409.00,411.00 L 409.00,412.00 L 409.00,413.00 L 409.00,414.00 L 409.00,415.00 L 409.00,416.00 L 409.00,417.00 L 409.00,418.00 L 409.00,419.00 L 409.00,420.00 L 409.00,421.00 L 408.91,422.00 L 408.82,423.00 L 408.73,424.00 L 408.64,425.00 L 408.55,426.00 L 408.45,427.00 L 408.36,428.00 L 408.27,429.00 L 408.18,430.00 L 408.09,431.00 L 408.00,432.00 L 408.00,433.00 L 408.00,434.00 L 408.00,435.00 L 408.00,436.00 L 408.00,437.00 L 408.00,438.00 L 408.00,439.00 L 408.00,440.00 L 408.00,441.00 L 408.00,442.00 L 408.00,443.00 L 408.00,444.00 L 408.00,445.00 L 408.00,446.00 L 408.00,447.00 L 408.00,448.00 L 407.91,449.00 L 407.82,450.00 L 407.73,451.00 L 407.64,452.00 L 407.55,453.00 L 407.45,454.00 L 407.36,455.00 L 407.27,456.00 L 407.18,457.00 L 407.09,458.00 L 407.00,459.00 L 407.00,460.00 L 407.00,461.00 L 407.00,462.00 L 407.00,463.00 L 407.00,464.00 L 407.00,465.00 L 407.00,466.00 L 407.00,467.00 L 407.00,468.00 L 407.00,469.00 L 407.00,470.00 L 407.00,471.00 L 407.00,472.00 L 407.00,473.00 L 407.00,474.00 L 407.00,475.00 L 407.00,476.00 L 406.91,477.00 L 406.82,478.00 L 406.73,479.00 L 406.64,480.00 L 406.55,481.00 L 406.45,482.00 L 406.36,483.00 L 406.27,484.00 L 406.18,485.00 L 406.09,486.00 L 406.00,487.00 L 406.00,488.00 L 406.00,489.00 L 406.00,490.00 L 406.00,491.00 L 406.00,492.00 L 406.00,493.00 L 406.00,494.00 L 406.00,495.00 L 406.00,496.00 L 406.00,497.00 L 406.00,498.00 L 406.00,499.00 L 406.00,500.00 L 406.00,501.00 L 406.00,502.00 L 406.00,503.00 L 406.00,504.00 L 406.00,505.00 L 406.00,506.00 L 406.00,507.00 L 406.00,508.00 L 406.00,509.00 L 406.00,510.00 L 405.91,511.00 L 405.82,512.00 L 405.73,513.00 L 405.64,514.00 L 405.55,515.00 L 405.45,516.00 L 405.36,517.00 L 405.27,518.00 L 405.18,519.00 L 405.09,520.00 L 405.00,521.00 L 405.00,522.00 L 405.00,523.00 L 405.00,524.00 L 405.00,525.00 L 405.00,526.00 L 405.00,527.00 L 405.00,528.00 L 405.00,529.00 L 405.00,530.00 L 405.00,531.00 L 405.00,532.00 L 405.00,533.00 L 405.00,534.00 L 405.00,535.00 L 405.00,536.00 L 405.00,537.00 L 405.00,538.00 L 405.00,539.00 L 405.00,540.00 L 405.00,541.00 L 405.00,542.00 L 405.00,543.00 L 405.00,544.00 L 405.00,545.00 L 405.00,546.00 L 405.00,547.00 L 405.00,548.00 L 405.00,549.00 L 405.00,550.00 L 405.00,551.00 L 405.00,552.00 L 405.00,553.00 L 405.00,554.00 L 405.00,555.00 L 405.00,556.00 L 405.00,557.00 L 405.00,558.00 L 405.00,559.00 L 405.00,560.00 L 405.00,561.00 L 405.00,562.00 L 405.00,563.00 L 405.00,564.00 L 405.00,565.00 L 405.00,566.00 L 405.00,567.00 L 405.00,568.00 L 405.00,569.00 L 405.00,570.00 L 405.00,571.00 L 405.00,572.00 L 405.00,573.00 L 405.00,574.00 L 405.00,575.00 L 405.00,576.00 L 405.00,577.00 L 405.00,578.00 L 405.00,579.00 L 405.00,580.00 L 405.00,581.00 L 405.00,582.00 L 405.00,583.00 L 405.00,584.00 L 405.00,585.00 L 405.00,586.00 L 405.00,587.00 L 405.00,588.00 L 405.00,589.00 L 405.00,590.00 L 405.00,591.00 L 405.00,592.00 L 405.00,593.00 L 405.00,594.00 L 405.00,595.00 L 405.00,596.00 L 405.00,597.00 L 405.00,598.00 L 405.00,599.00 L 405.00,600.00 L 405.00,601.00 L 405.00,602.00 L 405.00,603.00 L 405.00,604.00 L 405.00,605.00 L 405.00,606.00 L 405.00,607.00 L 405.00,608.00 L 405.00,609.00 L 405.00,610.00 L 405.00,611.00 L 405.00,612.00 L 405.00,613.00 L 405.00,614.00 L 405.00,615.00 L 405.00,616.00 L 405.00,617.00 L 405.00,618.00 L 405.00,619.00 L 405.00,620.00 L 405.00,621.00 L 405.00,622.00 L 405.00,623.00 L 405.00,624.00 L 405.00,625.00 L 405.00,626.00 L 405.00,627.00 L 405.00,628.00 L 405.00,629.00 L 405.00,630.00 L 405.00,631.00 L 405.00,632.00 L 405.00,633.00 L 405.00,634.00 L 405.00,635.00 L 405.00,636.00 L 405.00,637.00 L 405.00,638.00 L 405.00,639.00 L 405.09,640.00 L 405.18,641.00 L 405.27,642.00 L 405.36,643.00 L 405.45,644.00 L 405.55,645.00 L 405.64,646.00 L 405.73,647.00 L 405.82,648.00 L 405.91,649.00 L 406.00,650.00 L 406.00,651.00 L 406.00,652.00 L 406.00,653.00 L 406.00,654.00 L 406.00,655.00 L 406.00,656.00 L 406.00,657.00 L 406.00,658.00 L 406.00,659.00 L 406.00,660.00 L 406.00,661.00 L 406.00,662.00 L 406.00,663.00 L 406.00,664.00 L 406.00,665.00 L 406.00,666.00 L 406.00,667.00 L 406.09,668.00 L 406.18,669.00 L 406.27,670.00 L 406.36,671.00 L 406.45,672.00 L 406.55,673.00 L 406.64,674.00 L 406.73,675.00 L 406.82,676.00 L 406.91,677.00 L 407.00,678.00 L 407.00,679.00 L 407.00,680.00 L 407.00,681.00 L 407.00,682.00 L 407.00,683.00 L 407.00,684.00 L 407.00,685.00 L 407.00,686.00 L 407.00,687.00 L 407.00,688.00 L 407.00,689.00 L 407.00,690.00 L 407.09,691.00 L 407.18,692.00 L 407.27,693.00 L 407.36,694.00 L 407.45,695.00 L 407.55,696.00 L 407.64,697.00 L 407.73,698.00 L 407.82,699.00 L 407.91,700.00 L 408.00,701.00 L 408.00,702.00 L 408.00,703.00 L 408.00,704.00 L 408.00,705.00 L 408.00,706.00 L 408.00,707.00 L 408.00,708.00 L 408.00,709.00 L 408.09,710.00 L 408.18,711.00 L 408.27,712.00 L 408.36,713.00 L 408.45,714.00 L 408.55,715.00 L 408.64,716.00 L 408.73,717.00 L 408.82,718.00 L 408.91,719.00 L 409.00,720.00 L 409.00,721.00 L 409.00,722.00 L 409.00,723.00 L 409.00,724.00 L 409.00,725.00 L 409.00,726.00 L 409.00,727.00 L 409.00,728.00 L 409.00,729.00 L 409.09,730.00 L 409.18,731.00 L 409.27,732.00 L 409.36,733.00 L 409.45,734.00 L 409.55,735.00 L 409.64,736.00 L 409.73,737.00 L 409.82,738.00 L 409.91,739.00 L 410.00,740.00 L 410.00,741.00 L 410.00,742.00 L 410.00,743.00 L 410.00,744.00 L 410.00,745.00 L 410.00,746.00 L 410.00,747.00 L 410.00,748.00 L 410.00,749.00 L 410.00,750.00 L 410.00,751.00 L 410.00,752.00 L 410.00,753.00 L 410.00,754.00 L 410.00,755.00 L 410.00,756.00 L 410.00,757.00 L 410.00,758.00 L 410.00,759.00 L 410.00,760.00 L 410.00,761.00 L 410.00,762.00 L 410.00,763.00 L 410.00,764.00 L 410.00,765.00 L 410.00,766.00 L 410.00,767.00 L 410.00,768.00 L 410.00,769.00 L 410.00,770.00 L 410.00,771.00 L 410.00,772.00 L 410.00,773.00 L 410.00,774.00 L 410.00,775.00 L 410.00,776.00 L 410.00,777.00 L 410.00,778.00 L 409.91,779.00 L 409.82,780.00 L 409.73,781.00 L 409.64,782.00 L 409.55,783.00 L 409.45,784.00 L 409.36,785.00 L 409.27,786.00 L 409.18,787.00 L 409.09,788.00 L 409.00,789.00 L 409.00,790.00 L 409.00,791.00 L 409.00,792.00 L 409.00,793.00 L 409.00,794.00 L 409.00,795.00 L 409.00,796.00 L 409.00,797.00 L 409.00,798.00 L 409.00,799.00 L 409.00,800.00 L 409.00,801.00 L 409.00,802.00 L 409.00,803.00 L 409.00,804.00 L 409.00,805.00 L 409.00,806.00 L 409.00,807.00 L 409.00,808.00 L 409.00,809.00 L 409.00,810.00 L 409.00,811.00 L 409.00,812.00 L 409.00,813.00 L 409.00,814.00 L 409.00,815.00 L 409.00,816.00 L 409.00,817.00 L 409.00,818.00 L 409.00,819.00 L 409.00,820.00 L 408.91,821.00 L 408.82,822.00 L 408.73,823.00 L 408.64,824.00 L 408.55,825.00 L 408.45,826.00 L 408.36,827.00 L 408.27,828.00 L 408.18,829.00 L 408.09,830.00 L 408.00,831.00 L 408.00,832.00 L 408.00,833.00 L 408.00,834.00 L 408.00,835.00 L 408.00,836.00 L 408.00,837.00 L 408.00,838.00 L 408.00,839.00 L 408.00,840.00 L 408.00,841.00 L 408.00,842.00 L 408.00,843.00 L 408.00,844.00 L 408.00,845.00 L 408.00,846.00 L 408.00,847.00 L 408.00,848.00 L 408.00,849.00 L 408.00,850.00 L 407.91,851.00 L 407.82,852.00 L 407.73,853.00 L 407.64,854.00 L 407.55,855.00 L 407.45,856.00 L 407.36,857.00 L 407.27,858.00 L 407.18,859.00 L 407.09,860.00 L 407.00,861.00 L 407.00,862.00 L 407.00,863.00 L 407.00,864.00 L 407.00,865.00 L 407.00,866.00 L 407.00,867.00 L 407.00,868.00 L 407.00,869.00 L 407.00,870.00 L 407.00,871.00 L 407.00,872.00 L 407.00,873.00 L 407.00,874.00 L 407.00,875.00 L 407.00,876.00 L 406.91,877.00 L 406.82,878.00 L 406.73,879.00 L 406.64,880.00 L 406.55,881.00 L 406.45,882.00 L 406.36,883.00 L 406.27,884.00 L 406.18,885.00 L 406.09,886.00 L 406.00,887.00 L 406.00,888.00 L 406.00,889.00 L 406.00,890.00 L 406.00,891.00 L 406.00,892.00 L 406.00,893.00 L 406.00,894.00 L 406.00,895.00 L 406.00,896.00 L 406.00,897.00 L 406.00,898.00 L 406.00,899.00 L 406.00,900.00 L 405.91,901.00 L 405.82,902.00 L 405.73,903.00 L 405.64,904.00 L 405.55,905.00 L 405.45,906.00 L 405.36,907.00 L 405.27,908.00 L 405.18,909.00 L 405.09,910.00 L 405.00,911.00 L 405.00,912.00 L 405.00,913.00 L 405.00,914.00 L 405.00,915.00 L 405.00,916.00 L 405.00,917.00 L 405.00,918.00 L 405.00,919.00 L 405.00,920.00 L 405.00,921.00 L 405.00,922.00 L 404.91,923.00 L 404.82,924.00 L 404.73,925.00 L 404.64,926.00 L 404.55,927.00 L 404.45,928.00 L 404.36,929.00 L 404.27,930.00 L 404.18,931.00 L 404.09,932.00 L 404.00,933.00 L 404.00,934.00 L 404.00,935.00 L 404.00,936.00 L 404.00,937.00 L 404.00,938.00 L 404.00,939.00 L 404.00,940.00 L 404.00,941.00 L 404.00,942.00 L 404.00,943.00 L 403.91,944.00 L 403.82,945.00 L 403.73,946.00 L 403.64,947.00 L 403.55,948.00 L 403.45,949.00 L 403.36,950.00 L 403.27,951.00 L 403.18,952.00 L 403.09,953.00 L 403.00,954.00 L 403.00,955.00 L 403.00,956.00 L 403.00,957.00 L 403.00,958.00 L 403.00,959.00 L 403.00,960.00 L 403.00,961.00 L 403.00,962.00 L 403.00,963.00 L 402.91,964.00 L 402.82,965.00 L 402.73,966.00 L 402.64,967.00 L 402.55,968.00 L 402.45,969.00 L 402.36,970.00 L 402.27,971.00 L 402.18,972.00 L 402.09,973.00 L 402.00,974.00 L 402.00,975.00 L 402.00,976.00 L 402.00,977.00 L 402.00,978.00 L 402.00,979.00 L 402.00,980.00 L 402.00,981.00 L 402.00,982.00 L 402.00,983.00 L 402.00,984.00 L 402.00,985.00 L 402.00,986.00 L 402.00,987.00 L 402.00,988.00 L 402.00,989.00 L 402.00,990.00 L 402.00,991.00 L 402.00,992.00 L 402.00,993.00 L 402.00,994.00 L 402.00,995.00 L 402.00,996.00 L 402.00,997.00 L 402.00,998.00 L 402.00,999.00 L 402.00,1000.00 L 402.00,1001.00 L 402.00,1002.00 L 402.00,1003.00 L 402.00,1004.00 L 402.00,1005.00 L 402.00,1006.00 L 402.00,1007.00 L 402.00,1008.00 L 402.00,1009.00 L 402.00,1010.00 L 402.00,1011.00 L 402.00,1012.00 L 402.00,1013.00 L 402.00,1014.00 L 401.91,1015.00 L 401.82,1016.00 L 401.73,1017.00 L 401.64,1018.00 L 401.55,1019.00 L 401.45,1020.00 L 401.36,1021.00 L 401.27,1022.00 L 401.18,1023.00 L 401.09,1024.00 L 401.09,1025.00 L 401.18,1026.00 L 401.27,1027.00 L 401.36,1028.00 L 401.45,1029.00 L 401.55,1030.00 L 401.64,1031.00 L 401.73,1032.00 L 401.82,1033.00 L 401.91,1034.00 L 402.00,1035.00 L 402.00,1036.00 L 402.00,1037.00 L 402.00,1038.00 L 402.00,1039.00 L 402.00,1040.00 L 402.00,1041.00 L 402.00,1042.00 L 402.00,1043.00 L 402.00,1044.00 L 402.00,1045.00 L 402.00,1046.00 L 402.00,1047.00 L 402.00,1048.00 L 402.00,1049.00 L 402.00,1050.00 L 402.00,1051.00 L 402.00,1052.00 L 402.00,1053.00 L 402.00,1054.00 L 402.00,1055.00 L 402.00,1056.00 L 402.00,1057.00 L 402.00,1058.00 L 402.00,1059.00 L 402.00,1060.00 L 402.00,1061.00 L 402.00,1062.00 L 402.00,1063.00 L 402.00,1064.00 L 402.00,1065.00 L 402.00,1066.00 L 402.00,1067.00 L 402.00,1068.00 L 402.00,1069.00 L 402.00,1070.00 L 402.00,1071.00 L 402.00,1072.00 L 402.00,1073.00 L 402.00,1074.00 L 402.00,1075.00 L 402.00,1076.00 L 402.00,1077.00 L 402.00,1078.00 L 402.00,1079.00 L 402.00,1080.00 L 402.00,1081.00 L 402.00,1082.00 L 402.00,1083.00 L 402.00,1084.00 L 402.00,1085.00 L 402.00,1086.00 L 402.00,1087.00 L 402.00,1088.00 L 402.00,1089.00 L 402.00,1090.00 L 402.00,1091.00 L 402.00,1092.00 L 402.00,1093.00 L 402.00,1094.00 L 402.00,1095.00 L 402.00,1096.00 L 402.09,1097.00 L 402.18,1098.00 L 402.27,1099.00 L 402.36,1100.00 L 402.45,1101.00 L 402.55,1102.00 L 402.64,1103.00 L 402.73,1104.00 L 402.82,1105.00 L 402.91,1106.00 L 403.00,1107.00 L 403.00,1108.00 L 403.00,1109.00 L 403.00,1110.00 L 403.00,1111.00 L 403.00,1112.00 L 403.00,1113.00 L 403.00,1114.00 L 403.00,1115.00 L 403.00,1116.00 L 403.00,1117.00 L 403.00,1118.00 L 403.00,1119.00 L 403.00,1120.00 L 403.00,1121.00 L 403.00,1122.00 L 403.00,1123.00 L 403.00,1124.00 L 403.00,1125.00 L 403.00,1126.00 L 403.00,1127.00 L 403.00,1128.00 L 403.00,1129.00 L 403.00,1130.00 L 403.00,1131.00 L 403.00,1132.00 L 403.00,1133.00 L 403.00,1134.00 L 403.09,1135.00 L 403.18,1136.00 L 403.27,1137.00 L 403.36,1138.00 L 403.45,1139.00 L 403.55,1140.00 L 403.64,1141.00 L 403.73,1142.00 L 403.82,1143.00 L 403.91,1144.00 L 404.00,1145.00 L 404.00,1146.00 L 404.00,1147.00 L 404.00,1148.00 L 404.00,1149.00 L 404.00,1150.00 L 404.00,1151.00 L 404.00,1152.00 L 404.00,1153.00 L 404.00,1154.00 L 404.00,1155.00 L 404.00,1156.00 L 404.00,1157.00 L 404.00,1158.00 L 404.00,1159.00 L 404.00,1160.00 L 404.00,1161.00 L 404.00,1162.00 L 404.00,1163.00 L 404.00,1164.00 L 404.00,1165.00 L 404.00,1166.00 L 404.00,1167.00 L 404.09,1168.00 L 404.18,1169.00 L 404.27,1170.00 L 404.36,1171.00 L 404.45,1172.00 L 404.55,1173.00 L 404.64,1174.00 L 404.73,1175.00 L 404.82,1176.00 L 404.91,1177.00 L 405.00,1178.00 L 405.00,1179.00 L 405.00,1180.00 L 405.00,1181.00 L 405.00,1182.00 L 405.00,1183.00 L 405.00,1184.00 L 405.00,1185.00 L 405.00,1186.00 L 405.00,1187.00 L 405.00,1188.00 L 405.00,1189.00 L 405.00,1190.00 L 405.00,1191.00 L 405.00,1192.00 L 405.00,1193.00 L 405.00,1194.00 L 405.00,1195.00 L 405.00,1196.00 L 405.00,1197.00 L 405.09,1198.00 L 405.18,1199.00 L 405.27,1200.00 L 405.36,1201.00 L 405.45,1202.00 L 405.55,1203.00 L 405.64,1204.00 L 405.73,1205.00 L 405.82,1206.00 L 405.91,1207.00 L 406.00,1208.00 L 406.00,1209.00 L 406.00,1210.00 L 406.00,1211.00 L 406.00,1212.00 L 406.00,1213.00 L 406.00,1214.00 L 406.00,1215.00 L 406.00,1216.00 L 406.00,1217.00 L 406.00,1218.00 L 406.00,1219.00 L 406.00,1220.00 L 406.00,1221.00 L 406.00,1222.00 L 406.00,1223.00 L 406.00,1224.00 L 406.00,1225.00 L 406.00,1226.00 L 406.00,1227.00 L 406.09,1228.00 L 406.18,1229.00 L 406.27,1230.00 L 406.36,1231.00 L 406.45,1232.00 L 406.55,1233.00 L 406.64,1234.00 L 406.73,1235.00 L 406.82,1236.00 L 406.91,1237.00 L 407.00,1238.00 L 407.00,1239.00 L 407.00,1240.00 L 407.00,1241.00 L 407.00,1242.00 L 407.00,1243.00 L 407.00,1244.00 L 407.00,1245.00 L 407.00,1246.00 L 407.00,1247.00 L 407.00,1248.00 L 407.00,1249.00 L 407.00,1250.00 L 407.00,1251.00 L 407.00,1252.00 L 407.00,1253.00 L 407.00,1254.00 L 407.00,1255.00 L 407.00,1256.00 L 407.00,1257.00 L 407.09,1258.00 L 407.18,1259.00 L 407.27,1260.00 L 407.36,1261.00 L 407.45,1262.00 L 407.55,1263.00 L 407.64,1264.00 L 407.73,1265.00 L 407.82,1266.00 L 407.91,1267.00 L 408.00,1268.00 L 408.00,1269.00 L 408.00,1270.00 L 408.00,1271.00 L 408.00,1272.00 L 408.00,1273.00 L 408.00,1274.00 L 408.00,1275.00 L 408.00,1276.00 L 408.00,1277.00 L 408.00,1278.00 L 408.00,1279.00 L 408.00,1280.00 L 408.00,1281.00 L 408.00,1282.00 L 408.00,1283.00 L 408.00,1284.00 L 408.00,1285.00 L 408.00,1286.00 L 408.00,1287.00 L 408.00,1288.00 L 408.00,1289.00 L 408.00,1290.00 L 408.00,1291.00 L 408.09,1292.00 L 408.18,1293.00 L 408.27,1294.00 L 408.36,1295.00 L 408.45,1296.00 L 408.55,1297.00 L 408.64,1298.00 L 408.73,1299.00 L 408.82,1300.00 L 408.91,1301.00 L 409.00,1302.00 L 409.00,1303.00 L 409.00,1304.00 L 409.00,1305.00 L 409.00,1306.00 L 409.00,1307.00 L 409.00,1308.00 L 409.00,1309.00 L 409.00,1310.00 L 409.00,1311.00 L 409.00,1312.00 L 409.00,1313.00 L 409.00,1314.00 L 409.00,1315.00 L 409.00,1316.00 L 409.00,1317.00 L 409.00,1318.00 L 409.00,1319.00 L 408.91,1320.00 L 408.82,1321.00 L 408.73,1322.00 L 408.64,1323.00 L 408.55,1324.00 L 408.45,1325.00 L 408.36,1326.00 L 408.27,1327.00 L 408.18,1328.00 L 408.09,1329.00 L 408.00,1330.00 L 408.00,1331.00 L 408.00,1332.00 L 408.00,1333.00 L 408.00,1334.00 L 408.00,1335.00 L 408.00,1336.00 L 408.00,1337.00 L 408.00,1338.00 L 408.00,1339.00 L 408.00,1340.00 L 408.00,1341.00 L 408.00,1342.00 L 407.91,1343.00 L 407.82,1344.00 L 407.73,1345.00 L 407.64,1346.00 L 407.55,1347.00 L 407.45,1348.00 L 407.36,1349.00 L 407.27,1350.00 L 407.18,1351.00 L 407.09,1352.00 L 407.00,1353.00 L 407.00,1354.00 L 407.00,1355.00 L 407.00,1356.00 L 407.00,1357.00 L 407.00,1358.00 L 407.00,1359.00 L 407.00,1360.00 L 407.00,1361.00 L 406.91,1362.00 L 406.82,1363.00 L 406.73,1364.00 L 406.64,1365.00 L 406.55,1366.00 L 406.45,1367.00 L 406.36,1368.00 L 406.27,1369.00 L 406.18,1370.00 L 406.09,1371.00 L 406.00,1372.00 L 406.00,1373.00 L 406.00,1374.00 L 406.00,1375.00 L 406.00,1376.00 L 406.00,1377.00 L 406.00,1378.00 L 406.00,1379.00 L 406.00,1380.00 L 406.00,1381.00 L 406.00,1382.00 L 405.91,1383.00 L 405.82,1384.00 L 405.73,1385.00 L 405.64,1386.00 L 405.55,1387.00 L 405.45,1388.00 L 405.36,1389.00 L 405.27,1390.00 L 405.18,1391.00 L 405.09,1392.00 L 405.00,1393.00 L 405.00,1394.00 L 405.00,1395.00 L 405.00,1396.00 L 405.00,1397.00 L 405.00,1398.00 L 405.00,1399.00 L 405.00,1400.00 L 405.00,1401.00 L 405.00,1402.00 L 405.00,1403.00 L 405.00,1404.00 L 405.00,1405.00 L 405.00,1406.00 L 405.00,1407.00 L 405.00,1408.00 L 405.00,1409.00 L 405.00,1410.00 L 405.00,1411.00 L 405.00,1412.00 L 405.00,1413.00 L 405.00,1414.00 L 405.00,1415.00 L 405.00,1416.00 L 405.00,1417.00 L 405.00,1418.00 L 405.00,1418.50 L 405.00,1419.00 L 405.00,1419.50 L 405.00,1420.00 L 405.00,1420.50 L 0,1424 Z" fill="#FFFFFF" />
</svg>