<svg version="1.2" xmlns="http://www.w3.org/2000/svg" viewBox="0 0 1920 173" width="1920" height="173">
	<style>
		.s0 { fill: #000000 } 
	</style>
	<path class="s0" d="m0 113.38c156.3-24.52 146.54-38.7 234.6-23.7 21.5 3.66 155.65 32 230.76 33.53 13.3 0.27 185.7 3.18 189.47 3.87 44.05 7.09 140.22 13.54 185.43 13.09q6.54-0.26 13.03-0.49c17.34-0.58 34.66-0.79 51.81 0.74 4.51 0.16 9 0.44 13.5 0.91 6.58 0.68 12.99 1.81 19.31 3.17 6.32 1.36 12.55 2.92 18.75 4.35 37.32 9.88 76.08 12.9 116.46 9.13 8.85-0.48 17.75-0.93 26.79-1.27 10.33-1.01 20.67-2.01 30.3-5.44 2.74-0.89 5.48-1.84 8.21-2.78 17.29-5.97 35.02-11.22 52.76-16.32 18.2-5.24 37.46-10 57.11-9.17 20 0.84 39.33 5.41 59.27 6.54 16.68 0.95 33.55-0.6 49.63-4.18q4.13-0.92 8.13-2.02 3.99-1.11 7.92-2.32c37.99-12.63 76.63-30.04 115.16-41.24 64.33-18.7 72.3-19.19 112.6-17.61 25.89 1.02 94.32 31.8 111.16 34.67 119.11 20.28 145.78 10.92 207.84 3.38v769.05l-1920-1.77"/>
	<path class="s0" d="m1617.42 15.26c-0.31-0.39-1.24-0.06-1.61 0.03q-0.49 0.11-0.98 0.27-0.28-0.03-0.54-0.06-0.59-0.06-1.18 0-0.31-0.01-0.63 0.02c-0.46-0.17-0.89-0.26-1.37-0.24q-0.06-0.02-0.13-0.01-0.07 0-0.15 0.04-0.17 0.02-0.35 0.06c-1.41 0.32-1.78 1.71-1.96 2.97q-0.06 0.27-0.07 0.53v0.04c-0.61 0.33-1.33 0.49-2.06 0.52q-0.31-0.02-0.55-0.05c-0.21-0.02-0.41-0.29-0.61-0.34-0.07-0.08-0.17-0.36-0.29-0.36h-0.06c-0.25 0-0.49 0-0.74-0.11-0.8-0.49-1.48-1.06-2.23-1.67 0.04-0.04 0.09 0 0.15 0.02q0.13-0.1 0.28-0.19c0.67-0.25 1.37-0.46 1.91-0.93 1.15-0.99 0.95-2.59 0.75-4.01q0.03-0.05 0.02-0.12 0.01-0.27 0.21-0.49c0.64 0.48 1.67 0.46 2.37 0.14 0.46-0.21 0.79-0.54 1.09-0.94q0.27-0.36 0.56-0.68c1-0.8 1.75-1.56 1.68-2.93-0.06-1.29-1.13-3.01-0.39-4.22 0.18-0.31-0.17-0.58-0.45-0.45-2.19 0.98-5.01 1.71-6.1 3.84q-0.06-0.04-0.13 0c-0.39 0.22-0.5 0.77-0.59 1.17q-0.06 0.31-0.07 0.63c-0.34 0.94 0.28 2.39 0.95 3.04q0 0.03-0.01 0.08 0 0.02-0.02 0.05l0.02 0.03q0.02 0.14 0.03 0.29c-0.02 1.48-0.57 2.74-1.8 3.76-0.64 0.54-1.37 0.97-2.12 1.35q-0.03 0.01-0.07 0.02-0.21 0.08-0.41 0.17-0.31 0.09-0.65 0.14-0.57 0.07-0.99-0.12c-0.28-0.87-0.6-1.74-0.77-2.51q0.08-0.09 0.08-0.24c0.01-1.37 0.84-2.67 1.27-3.99q0.01-0.04 0.01-0.08v-0.05c0-0.51 0.26-1.02 0.19-1.55 0.67-0.06 1.43-0.89 1.7-1.4q0.19-0.38 0.23-0.78 0.04-0.09 0.06-0.17 0.15-0.57-0.08-1.01c-0.05-0.7-0.42-1.36-0.7-2.01-0.02-0.46-0.17-0.9-0.32-1.33 0.09-0.17 0.06-0.34 0.04-0.56q0-0.08-0.07-0.11-0.03-0.26-0.1-0.53c-0.09-0.34-0.66-0.29-0.64 0.06q-0.34 0.49-0.6 1.02-0.16 0.14-0.3 0.29c-0.44 0.51-0.76 1.09-1.25 1.57-0.68 0.66-1.23 1.45-1.37 2.37-0.59 1.38 0.53 2.64 1.94 2.53 0.09 0.6 0.17 1.19-0.03 1.8-0.28 0.87-0.48 2.19-1.24 2.8q-0.07 0.28-0.22 0.51-0.02 0.06-0.05 0.13-0.18-0.51-0.48-0.96c-0.04-0.97 0.36-2.14-0.59-2.84-0.47-0.34-0.99-0.21-1.5-0.13-0.96-0.64-1.76-1.3-2.33-2.4-0.1-0.19-0.42-0.11-0.41 0.11 0.04 0.46 0.19 0.83 0.39 1.24 0.4 0.84 0.12 1.47-0.14 2.29-0.22 0.71-0.14 1.63 0.34 2.22 1.01 1.23 2.71 0.73 3.64-0.32q0 0 0-0.01 0.13 0.19 0.25 0.39c0.13 0.21 0.35 0.52 0.5 0.85q0.01 0.1 0.02 0.2c-0.17 0.26-0.36 0.5-0.62 0.66h-0.13c-0.09 0.47 0.25 0.81-1.55 1.05 0 0.1-0.34 0.16-0.56 0.23-0.15-0.05-0.41-0.11-0.48-0.16-0.15 0.01-0.52-0.05-0.64-0.2-0.06-0.08-0.24-0.15-0.32-0.21-0.09-0.05-0.24-0.1-0.33-0.15-0.6-0.22-1.51-0.15-2-0.14-0.43 0-0.88 0.04-1.31 0.07-0.36 0.28-0.71 0.6-1.1 0.85-0.65 0.41-1.25 0.63-1.33 1.33q-0.38 0.44-0.66 0.96c-0.06 0.12-0.01 0.29 0.13 0.32 0.85 0.19 1.71 0.15 2.56 0.32 0.6 0.11 1.11 0.38 1.67 0.4q0.14 0.07 0.27 0.15 0.18 0 0.37-0.03c0.67-0.18 1.39-0.66 1.77-0.93 0.43-0.3 0.66-0.76 0.99-1.09q0-0.06 0.02-0.11 0.41-0.16 0.75-0.43 0 0 0.02-0.02 0.13-0.03 0.28-0.04 0.44-0.2 0.88-0.43 0.2-0.09 0.39-0.19 0.33-0.23 0.69-0.42 0.06 0.15 0.08 0.31 0 0.03 0.03 0.06c0.23 0.55 0.44 1.11 0.55 1.68 0.33 0.96 0.26 2.06-0.15 2.72-0.57 0.9-2.13 1.37-3.54 2.08 0.08-0.68 0.15-1.36 0.3-2.03q0.14-0.57 0.45-1.1c0.11-0.18-0.15-0.39-0.3-0.23q-0.24 0.26-0.43 0.55-0.06 0.04-0.1 0.14 0 0.01-0.01 0.04c-0.8 1.23-1.21 2.66-1.9 3.96-0.79 0.68-1.36 1.4-1.75 2.09-0.15 0.4-0.04 0.94-0.47 1.18-0.67-2.25-3.59-2.63-5.67-3.41-1.05-1.19-1.42-3.02-1.09-4.64q0.35-0.34 0.7-0.6 0.22-0.3 0.46-0.51 0.07-0.14 0.22-0.26 0.06-0.05 0.13-0.09-0.06-0.05 0-0.12 0.11-0.24 0.21-0.47c0.34-0.88 0.41-1.82 0.57-2.74 0.3-0.75 0.71-1.65 0.91-2.52 0.75-0.18 1.52-0.36 2.01-1 0.32-0.42 0.31-0.99 0.22-1.48-0.09-0.47-0.29-0.9-0.34-1.38-0.03-0.34 0.06-0.69 0.1-1.04 0.09-0.35-0.07-0.7-0.35-0.97-0.23-0.32-0.65-0.56-0.95-0.78q-0.04-0.03-0.07-0.06-0.11-0.11-0.23-0.21-0.15-0.16-0.29-0.37-0.04-0.07-0.08-0.13-0.05-0.2-0.15-0.38-0.04-0.29-0.26-0.41-0.15-0.23-0.26-0.49c-0.06-0.18-0.3-0.18-0.37 0q-0.13 0.35-0.17 0.71-0.04 0.1-0.04 0.23c0.03 0.72-0.55 1.4-0.92 1.98-0.43 0.67-0.83 1.37-0.9 2.18-0.15 1.48 0.54 2.59 1.84 3.19q0.05 0.09 0.09 0.18c-0.47 1.08-0.72 2.26-1.19 3.35-0.47 1.08-1.17 1.99-1.98 2.8-0.11-1.06-0.71-2-1.36-2.85-0.4-0.54-0.59-1.16-0.7-1.81 0-0.42 0.1-0.81 0.35-1.27 0.33-0.61 0.79-1.13 1.15-1.72 0.18-1.45-0.14-2.97-1.21-3.94-0.74-0.68-1.63-1.2-2.34-1.92-0.34-0.34-0.67-0.73-0.88-1.15q-0.01-0.03-0.02-0.05-0.02-0.11-0.07-0.15-0.01-0.04-0.03-0.07 0 0.01-0.01 0.04c-0.14-0.1-0.37-0.04-0.38 0.19-0.06 1.08-0.69 2.03-1.2 3.02-0.92 1.33-1.3 3.07-0.31 4.35q0.22 0.53 0.47 1.07 0.06 0.11 0.05 0.23 0.03 0.06 0.05 0.12 0.26 0.16 0.51 0.31c0.72 0.44 1.62 0.45 2.31 0.93 0.5 0.34 0.48 0.9 0.62 1.42q0.16 0.29 0.27 0.59 0.02 0.06 0.05 0.16 0.11 0.19 0.18 0.38 0.04 0 0.07 0.01 0.12 0.18 0.26 0.36l0.11 0.11q0.09 0.07 0.11 0.18 0.17 0.12 0.18 0.31c0.34 0.55 0.46 1.14 0.5 1.72 0 0.03-0.16 0.05-0.16 0.08v0.03c0 0.6 0.07 1.2-0.07 1.77-0.14 0.58-0.31 0.81-0.71 0.96-0.52-0.12-1.12-0.05-1.77 0.04-0.06-0.1-0.14-0.16-0.3-0.15-0.69 0.04-2.09-0.36-2.82-1.03q0.03-0.1 0.08-0.19-0.08-0.21 0.03-0.47c0.3-0.65 0.3-1.72 0.34-2.47q0.05-0.76 0.04-1.52 0.01-0.23-0.02-0.46-0.04-0.06-0.05-0.1c-0.87-0.89-1.71-1.89-2.71-2.62-0.62-0.45-1.98-0.64-2.44-1.32q-0.06-0.29-0.17-0.57c-0.15-0.39-0.81-0.37-0.78 0.11q0.03 0.43 0.2 0.76c0.55 2.52-0.76 5.49 0.92 7.69 0.68 0.9 2.48 2.44 3.89 2.31 0.5 0.59 1.41 0.95 2.31 1.09q0.13 0.07 0.26 0.15 0.69 0.07 1.41 0.07 0.18 0 0.29 0.07c0.48 0.1 0.92 0.33 1.21 0.7 0.7 0.4 1.32 1.01 2.04 1.34 0.43 0.19 1.4 0.47 1.78 0.93q0.12 0.1 0.14 0.27v0.01q0.02 0.09 0 0.17c0.01 0.16-0.07 0.33-0.27 0.39-0.74 0.22-1.51 0.52-2.1 1.05-0.44 0.39-0.84 0.84-1.3 1.22q-0.13 0.15-0.27 0.3-0.35-0.27-0.71-0.51 0-0.02 0-0.03c0.08-1.23 0.36-2.7-0.8-3.51-0.64-0.45-1.57-0.36-2.29-0.28-1.06 0.12-1.81 0.09-2.54-0.8-0.15-0.18-0.5-0.08-0.55 0.15-0.28 1.39 0.32 2.74 1.32 3.68 0.72 1.06 1.97 1.76 3.11 1.26q0.22 0 0.44-0.03 0.32 0.19 0.59 0.39 0.2 0.12 0.39 0.26 0.06 0.06 0.13 0.09 0.06 0.04 0.13 0.1c-0.76 0.65-1.65 1.12-2.81 1.15-0.72 0.01-1.58-0.23-2.36-0.69q-0.09 0-0.2-0.05-0.47-0.2-1-0.21-0.16-0.12-0.29-0.26-0.3-0.59-0.67-1.15c-0.15-1.3 0-2.81-0.82-3.83-0.57-0.71-1.27-0.66-2.09-0.84-0.79-0.17-1.48-0.96-2.03-1.51q-0.09-0.08-0.18-0.06-0.09-0.07-0.2-0.11c-0.09-0.16-0.36-0.19-0.4 0.03-0.07 0.39-0.03 0.79-0.02 1.18 0.01 0.76-0.25 1.35-0.56 2.02-0.36 0.78-0.1 1.43 0.51 1.98 1.27 1.15 3.13 2.02 4.74 1.18 0.25 0.6 0.35 1.34 0.55 1.92q-0.43 0.29-0.8 0.68c-0.34 0.36-0.6 0.68-0.89 0.91q-0.03-0.03-0.04-0.06-0.19 0.17-0.5 0.2c-0.14 0.01-0.25-0.1-0.3-0.23q-0.31-0.74-0.51-1.53-0.03-0.14 0.03-0.23-0.1-0.25-0.29-0.47c-0.63-0.76-1.72-0.91-2.64-0.82-2.71 0.27-4.19 2.88-6.34 4.13-0.31 0.18-0.15 0.58 0.16 0.62 1.13 0.12 2.28 0.54 3.23 1.17 0.75 0.5 1.37 1.04 2.31 1.11 1.2 0.07 2-0.8 2.77-1.64q0.15-0.44 0.41-0.78c0.65 0 1.33-0.04 1.91-0.27q0.01 0.26-0.05 0.5 0 0.04 0 0.08 0.01 0.15-0.02 0.3c-0.26 0.52-0.59 1.03-0.91 1.52q-0.21 0.03-0.3 0.28-0.06 0.16-0.12 0.32c-0.2 0.4 0.32 0.85 0.64 0.49q0.85-0.91 1.55-1.95c0.43-0.67 0.52-1.46 0.75-2.21 0.39-1.27 1.41-1.53 2.46-1.38 1.1 0.63 2.28 1.1 3.67 1.23q0.05 0.08 0.08 0.14-0.02 0.14-0.08 0.27c-0.28 0.54-0.68 1.08-1.16 1.51q-0.35 0.29-0.75 0.53-0.21 0.11-0.43 0.2-0.24 0.15-0.52 0.26 0 0 0.02 0.02-0.15 0.04-0.31 0.12c-0.53 0.51-1.17 0.96-1.84 1.28q-0.07 0.06-0.15 0.11c-0.35 0.25-0.73 0.38-1.13 0.46-0.7-0.22-1.48-0.37-2.15-0.07-0.39 0.17-0.67 0.45-0.89 0.77q-0.56 0.34-0.93 0.98c-0.53 0.96-0.5 2.23-0.44 3.29 0.07 1.33 0.37 2.64 0.68 3.93 0.08 0.33 0.56 0.39 0.73 0.1q0.14-0.24 0.29-0.48 0.08-0.03 0.14-0.12c1.83-2.21 5.98-3.16 4.91-6.76v-0.06c-0.29-0.19-0.5-0.46-0.55-0.8 1.18-0.76 2.41-1.45 3.53-2.31 0.76-0.58 1.62-1.28 2.11-2.15q0-0.02 0.03-0.03 0.15-0.29 0.25-0.59c0.46-0.86 1.22-1.76 2.16-2.56q0.03-0.15 0.17-0.28c1.02-0.91 2.51-2.02 3.94-1.94 0.72 0.04 1.29 0.57 1.4 1.28 0.09 0.62-0.15 1.22-0.55 1.69-0.18 0.29-0.52 0.52-0.93 0.7q-0.03 0.03-0.05 0.06-0.04 0.01-0.09 0.04-0.03 0-0.08 0-0.36 0.08-0.72 0.12-0.45 0.07-0.9 0.08c-0.61 0.05-1.2 0.11-1.75 0.38q-0.09 0.03-0.18 0.07c-0.31 0.14-0.52 0.33-0.7 0.57-0.95 0.94-1.63 2.16-2.56 3.13q-0.22 0.1-0.45 0.33c-0.18 0.2-0.08 0.46 0.15 0.56q0.03 0 0.06 0.02 0.11 0.12 0.31 0.1 0.28-0.05 0.58-0.06 0.06 0.04 0.15 0.03 0.17-0.01 0.34-0.01 0.23 0 0.45 0.01 0.06 0 0.11-0.02c1.13 0.02 2.25 0.13 3.35-0.15q0.12-0.04 0.18-0.12 0.51-0.1 0.95-0.4c1.17-0.83 1.13-2.62 1.73-3.81 0.01-0.06 0.16-0.11 0.16-0.17 0-0.84 1.7-1.91 2.61-1.16 0.54 0.44 0.62 1.27 0.74 1.91q0.15 0.76 0.15 1.53 0.19 0.67 0.16 1.41c-0.01 0.62-0.15 1.24-0.34 1.85q-0.37 0.6-0.77 1.18c-0.48 0.72-1.11 1.35-1.74 1.98-1.8 1.12-3.43 2.53-4.22 4.55-0.41 1.04-0.41 1.98-0.18 2.88q-0.01 0.13 0 0.27v0.39c0 0.97 0.63 1.92 0.98 2.86q0.11 0.18 0.24 0.35 0.35 0.8 0.76 1.58c0.66 1.82 1.11 3.69 0.74 5.67-0.34 1.81-0.93 3.55-1.99 5.06-0.14 0.2-0.3 0.57-0.45 0.57h12.93c0.77-2.63 0.11-5.95-0.8-8.4-0.93-2.52-2.42-4.03-4.14-5.69q-0.41-0.44-0.8-0.94c-0.79-1.09-1.53-2.29-1.61-3.66-0.14-2.47 1.83-4.71 3.01-6.7q0.14-0.25 0.15-0.48 0.21-0.38 0.41-0.72c0.66-1.12 1.43-2.36 2.73-2.78q0.71-0.21 1.44-0.17 0.55-0.07 1.11 0 0.06-0.03 0.12-0.05c1.19 0.62 2.24 1.5 3.15 2.5q0 0.18 0.21 0.29 0.05 0.03 0.1 0.06 0.47 0.54 0.88 1.12 0.01 0.09 0.01 0.19c-0.91 1.1-0.85 3.19 0.13 4.26q0.08 0.16 0.15 0.33c0.75 1.51 2.44 2.24 3.43 3.56 0.25 0.33 0.8 0.04 0.57-0.33-0.54-0.87-0.18-2.15 0-3.07 0.21-1.03 0.28-2 0.03-3.02q-0.23-0.96-1.02-1.55c-0.73-0.55-1.72-0.5-2.5-0.95q-0.04-0.03-0.07-0.04-0.26-0.38-0.58-0.72-0.1-0.2-0.23-0.37c-0.17-0.52-0.39-1.03-0.75-1.47-0.35-0.43-0.79-0.76-1.24-1.08q-0.12-0.09-0.31-0.2 0.04-0.06 0.07-0.12 0.57-0.02 1.16-0.03 0.08 0 0.14 0 0.48 0.03 0.94 0.08c1.25 0.11 2.51 0.2 3.75 0.38q0.77 0.19 1.53 0.27 0.99 0.22 1.95 0.58 0.5 0.29 0.93 0.68c-0.41 0.45-0.74 1.1-0.89 1.53-0.41 1.21 0.13 2.42 0.63 3.5 0.5 1.09 1.19 1.69 2.31 2.1 0.62 0.23 1.21 0.53 1.83 0.77 0.63 0.25 1.29 0.36 1.91 0.62 0.21 0.08 0.38-0.19 0.28-0.36-0.25-0.41-0.52-0.66-0.4-1.25 0.07-0.34 0.21-0.64 0.26-0.99q0.12-0.87 0.29-1.73c0.18-0.88 0.1-2.17-0.26-3-0.35-0.81-1.06-1.17-1.89-1.32-0.42-0.08-0.84-0.09-1.26-0.12-0.38-0.02-0.72-0.12-1.07-0.15-0.27-0.15-0.53-0.3-0.75-0.51q-0.05-0.05-0.11-0.03 0-0.01-0.01-0.01c-0.19-0.07-0.29-0.28-0.29-0.49q0-0.04-0.02-0.08 0.01 0 0.04-0.01c0.03-0.14 0.13-0.28 0.31-0.34 0.93-0.33 2.02-0.17 2.98 0.05 0.38-0.08 0.76-0.24 1.09-0.43 0.81-0.46 1.33-1.44 1.64-2.43 0.58-0.8 1.02-1.7 1.61-2.49-0.33-0.18-0.94-0.13-1.45-0.05q-0.72 0.03-1.43 0.23c-0.58 0.04-1.2 0.03-1.76 0.15q-0.28 0.17-0.54 0.37c-1.23 0.05-2.29 1-2.25 2.3q-0.08 0.56 0.03 1.12l-0.07 0.21q-0.74 0.57-1.73 0.81-0.28 0.06-0.58 0.07c-0.62-0.14-1.24-0.37-1.86-0.55q-0.97-0.29-1.99-0.45c-0.42-0.07-0.87-0.21-1.3-0.27q0 0-0.02 0c0.62-0.87 1-2.03 1.68-2.82 0.02-0.05 0.6-0.11 0.61-0.16 0-0.02 0.58-0.04 0.58-0.05v-0.03c0-0.21-0.1-0.4 0.3-0.49 0.12-0.03-0.04-0.03 0.09-0.02 0.24 0.27 0.32 0.57 0.64 0.76 0.41 0.24 0.87 0.14 1.28 0 0.29-0.09 0.53-0.23 0.8-0.42 1.09-0.27 1.89-0.96 2.94-1.4 0.11-0.05 0.11-0.21 0-0.26-1.62-0.71-3.33-2.63-5.28-2.09-0.73 0.2-1.32 1-1.52 1.7q-0.09 0.31-0.19 0.59c-0.1 0.56-0.66 0.89-1.1 1.27q-0.05 0.04-0.1 0.04-0.27 0.33-0.53 0.66 0 0-0.01-0.01-0.19-0.55-0.44-1.06 0-0.02 0-0.04-0.09-0.11-0.16-0.24c-0.09-0.13-0.1-0.34 0-0.47 0.28-0.42 0.34-0.86 0.35-1.32q-0.03-0.09-0.07-0.16c-0.15-0.3-0.24-0.49-0.52-0.67-0.1-0.06-0.08-0.13-0.08-0.2 0-0.13-0.36-0.24-0.47-0.34-0.21-0.2-0.7-0.33-1.1-0.38-0.07-0.02-0.19-0.03-0.26-0.04q-0.43-0.16-0.95-0.16c-0.32 0-0.67 0.01-0.98 0.1-0.45 0.04-0.94 0.16-1.28 0.44-0.03 0.02-0.05 0.08-0.02 0.11 0.15 0.16 0.33 0.29 0.47 0.45q0.03 0.13 0.08 0.24 0.12 0.3 0.32 0.55c0.71 1.51 2.18 3.25 3.66 2.23q0.05 0 0.1 0.01 0.3 0.56 0.41 1.14c0.02 0.54-0.06 1.06-0.41 1.52q-0.03 0.04-0.05 0.09-0.17 0.12-0.35 0.23-0.03-0.01-0.08-0.01c-2.19-0.07-4.39-0.53-6.58-0.35-0.73 0.06-1.6 0.27-2.4 0.23-0.12-0.95-0.55-1.86-0.55-2.82q-0.01-0.61 0.09-1.25c0.02-0.52 0.13-1.04 0.42-1.43q0.24-0.46 0.57-0.73c1.39-2 5.67-2.77 6.88-4.93 0.37-0.65 0.37-1.36 0.48-1.92q0.37-0.4 0.83-0.7c0.8-0.53 1.85-0.56 2.81-0.31 0.38 0.25 0.75 0.53 1.16 0.69 1.13 0.46 2.49 0.68 3.76 0.52q0 0.13 0.11 0.27 0.35 0.38 0.55 0.86-0.22 0.05-0.44 0.14 0 0.03 0 0.06-0.08 0.05-0.14 0.11c-0.26 0.24-0.4 0.5-0.51 0.82-0.25 0.74 0.19 1.53 0.61 2.1 0.54 0.74 1.07 1.26 1.93 1.61 1.16 0.48 2.23 0.9 3.26 1.62 0.21 0.15 0.45-0.13 0.34-0.33-0.54-0.97-0.03-1.77 0.05-2.77 0.05-0.74-0.02-1.66-0.33-2.34-0.5-1.1-1.82-1.02-2.81-1.36-0.47 0-0.83-0.29-1.23-0.54-0.14-0.09-0.07-0.17 0.08-0.17h0.06c0 0-0.05-0.15-0.07-0.16 0.18-0.03 0.35-0.13 0.52-0.17 0.17 0.04 0.35 0.04 0.51 0.07q0.56 0.16 1.13 0.22c0.98 0.3 1.91 0.24 2.9-0.37 0.68-0.42 1.27-1.05 1.6-1.79q0.06-0.06 0.12-0.14 0.22-0.27 0.37-0.58 0.39-0.31 0.75-0.66c0.31-0.3 0.86-0.8 0.93-1.31 0.09-0.07 0.15-0.22 0.05-0.34"/>
</svg>