<?xml version="1.0" encoding="UTF-8"?>
<svg id="HEADER_FOOTER" data-name="HEADER FOOTER" xmlns="http://www.w3.org/2000/svg" viewBox="0 0 95.26 94.1">
  <defs>
    <style>
      .cls-1 {
        fill: #b3b3b3;
      }
    </style>
  </defs>
  <path class="cls-1" d="M95.22,2.2l-.11.08c-.02.05.03.13.03.17-.01,0-.12.07-.13.08.01,0-.06-.16-.06-.16.05-.03.09-.06.12-.08,0,0-.03-.15-.03-.15-.27.08-.54.25-.79.37-.06-.01-.07-.05-.08-.1.02-.08.06-.06.11-.15.03-.06-.07-.08-.04-.15.03-.05.08-.07.13-.1-.02-.01-.06-.11-.06-.11-.11.02-.22.05-.31.1-.04-.03-.08-.07-.11-.11-.05-.03-.08.06-.14.04-.05-.06-.07-.08-.12-.13l-.11.1s.04.08.04.13c-.42.29-.7-.24-1.16,0-.04-.1-.16-.19-.18-.3l-.13.06c.01.06.04.11.04.18-.19,0-.37-.06-.58-.06.28-.41-.97-.28-.93-.18-.18.2-.37.26-.54.11-.06-.03-.08.06-.15.04-.04-.04-.06-.09-.11-.13,0,.02-.11.06-.11.06,0,.07.01.15.01.2-.02.03,0-.22-.02-.2-.04-.03-.15.17-.19.13-.1.07-.11-.17-.23-.13.01-.05-.11.18-.08.16-.01-.01-.08-.13-.08-.13,0,0-.02.69-.03.7-.01-.04-.04.62-.04.62h-.06c-.14,0-.31-1.09-.43-1.17,0,0,.01-.15.04-.1l-.04-.1-.11-.26s.03-.09.04-.11l-.25-.02c-.05,0-.19-.06-.19-.06-.02-.07-.08-.09-.09-.16,0-.06-.14-.16-.17-.12-.04-.04-.53-.01-.56-.01-.2-.03-.25-.15-.34-.03,0,0-.04-.06-.09-.08C86.23-.11,83.74,0,83.74,0c-1.55.11-3.18,1.43-3.18,1.43-1.21.85-2.76,4.22-2.93,4.64-.18.44-1,1.54-1.62,2.06-.93.77-1.94,1.55-2.98,2.14-1.38.79-2.78,1.59-4.26,2.17-2.12.83-4.33,1.46-6.56,1.88-2.41.46-4.86.62-7.32.59-2.48,0-4.96-.33-7.43-.59-6.02-.58-14.82-4.35-26.45-4.56-.62,0-5.01-.15-13.15,3.15-.37.23-1.08.3-1.59.18.18.23.04.27-.25.3.33.35.34.32.19.63-1,.22.13-.83-.9-.1.17.25.11.25,0,.55-.1-.11-.25-.18-.44-.01-.1.48.57.04.06.53-.32.11-.71.35-.7-.05-.24.4-.11.43-.4.82-.19-.98-.09.16-.58.05.1-.16.05-.51-.16-.37-.17.24.22.57-.36.44.08.21.02.43,0,.65-.22-.14-.44.04-.45-.29-.06.28-.56.59-.95.5.13.18.03.08-.16.11.22.25.06.3-.02.56-.62.22.03-.62-.57,0,.14.25.07.16-.05.5l.09.06c-.36.18-1,.67-.32.91-.36-.2.32-.7.45-.62-.26.34-.48.49-.25.92.04-.2.28-1.22,1.06-1.13,1.24-1.43,2.47-1.01,2.42-1.3.78-.24,1.55-1.51,4.28-1.58-.07-.59.3-.28.92-.51,0,0-1.15.82-1.9,1.53-.19-.04-.88.01-.47.08l-.6.26c.03.06.19.1.45.06-.72.59-1.64,1.08-2.53,1.63-.74.46,1.78-.48,4.72-2.11-1.46,1.75-4.44,2.12-5,4.15-.78.12-4.15,2.98-3.02,2.2-.4.53.88-.89,1.21-.24.18-.05.34-.04.38.18.17-.41-.31-.73.13-.97.41.95.28.11.81.18-.07.18.01.52.21.36.14-.24-.23-.63.41-.55-.13-.2-.25-.41-.28-.63.27.11.39.03.47.36.06-.7.52-.56,1.07-.48-.17-.18.01-.22.2-.28-.28-.24-.47-.48-.43-.74.6-.25.23,1,.73.34-.33-.38-.34-1.44.06-1.44-.16.22-.11.35.12.37-.32.08-.32,1.01,0,.79.03-.64,1.25-.48,1-1.38.62.39.93-.1,1.12-.23.63,1.25,1.64-1.53,2.64-1-.37-.93.73-1.08,1.65-1.14,1.49-1.55,4.6-2.85,5.66-3.05-.16.1-.36.36-.58,1.02,6.31-2.31,19.08,5.14,32.89,8.93l-1.11,2.97c-1.69-.87-6.8-3.56-11.32-3.99-3.12-.29-5.28.7-7.65,1.88-.03.3.02.53.14.68-5.39,4.58-6.97,13.77-5.65,22.19.62,4,3.43,8.11,6.63,10.46,1.9.97,8.1,3.83,16.33-2.14.3,3.62.21,7,1.66,9.56.06-.14.02-.34.18-.33-.56.71.71,1.58.65.86.37.25-.34.51.32.51l.03-.67c.44.47.16-.25.51-.32.37.25-.23.39.15.51.29-.22.23-.8.86-.65-.11-.58.33-.7.03-1.01.82-.03,1.12-1.02,1.07-1.48.29,0,.51.06.66.2.19-1.04-.09-2.14-.91-2.73.39-.21.62.46.68.03-.22-.07-.34-.23-.33-.52.29-.05.43.27.51.03-.38.04.02-1.85.22-1.35-.14-1.64-.12-3.64-.17-5.38,5.97-4.85,8.28-12.12,17.78-12.79,4.18,4.93,2.13,8.82-.66,15.94-.18.07-.36.55-.63.49-2.11,5.06-3.22,7.04-9.33,21.48-.53,1.46-1.92,3.54-2.24,4.63-1.4,1.81-1.83,5.21-2.2,6.87.17-.74-.9,1.7-.1,1.55-.09.24-.15.45.15.56.03-.21.06-.22.34-.15-.03.72-1.87.04-1.05.81-.25-.42.59-.48.51-.15-.66.35-.38.98-.96.96.08.28.12.35.62-.12-.13,0-.22,1.09-.19,1,.32.02.46.84.56.84h.03c-.13,0-.27-.53-.4-.41.17,0,.43-.83.56-.91-.06-.05-.11-.62-.12-.76.19-.01.42-.16.52-.16l.05-.76s0-.04.01-.04c.02-.05,0-.1,0-.15l.02-.27c.06-.09.04-.06-.02.03-.14-.31-.57-.47-.12-.75.01.26-.04.5.32.43.16-.5-.07-.77-.29-1.28.54-.03.96-.63.37-.91.22,0,.36.18.49.28.01-.24-.06-.47-.15-.6.18,0,.2.13.34.18.03-.42.13-.81-.06-1.02,1.35-.59.89-2.39,2.02-2.73-.69-.65,1.62-2.66.83-2.92.33-.02.13-.04.43-.05-.08-.53-.46-.44.32-.84-.17.37-.19,1.22-.02,1.31.33-.17.05-.69.28-.51.04-.19.06.41.22.33-.23,2.25-3.14,6.64-2.59,8.59-.63-.58-1.41,4.26-1.12,3.49.04.56.24-1.53.86-.81-.43-.06-.56.21-.53.66.1.06.63.44.68.02-.23-.39-.55.32-.49-.34.16-.3.6-.42.84-.15-.06-.41-.42-.56-.46-1.02.74.54.1-.24.52-.48.04.18.25.41.32.18-.01-.29-.47-.39.04-.67-.2-.1-.39-.2-.5-.36.25-.06.62-.73,1.06-.96-.21-.06-.11-.2,0-.34-.31-.03-.56-.13-.67-.36.32-.54.65.68.69-.15-.41-.11-.93-.96-.63-1.2-.02.27.08.35.26.23-.2.24.23,1,.37.63-.28-.52.4-.57-.2-1.16.62-.04,2.05-4.21,2.13-4.41,1.03.65.28-1.57,1.24-1.71-.72-.54.17-.82-.46-1.11.79.1.45-.44,1.12-.63,0-.26,0-.39,0-.49.02-.03.04-.05.06-.12-.2-.09-.38-.19-.5-.34.7-.28,1.13-.16.71-1,.06,0,.34.16.33.18.15-1.37-.64-1.18.77-1.76-.05-.1-.05-.11-.08-.15-.03,0-.05-.04-.06-.1,0,0,0,0,0-.01h0c.1-.71.89-.06.85-.63-.13-.66-.63.53-.67-.03.44.08.83-1.37,1.17-2.14.04-.56.9-1.17.55-1.64.22.18.61.19.83.37.4-.94.12-2.27,1.09-2.5.08.25-.67.39-.19.49.3-.27,1.35-1.73.55-1.35.44-.2-.3-.32.01-.32.19.29.4.21.62.13-.04,0-.1-.03-.19-.1-.13-.07-.18-.07-.21-.04,0-.04,0-.06-.05-.15.03,0,.02-.02.02-.03.19.19.52.1.4.05.29-.56.43-.84.13-1.19.44-.42.24-.73.53-.98.01.05,0,.09.02.14,0-.13.02-.27.09-.44.19-.03.48.05.51-.15-.2.04-.57-.17-.16-.18.03.2.26.08.33-.16-.23-.42.39-1.08,1.22-.95-.15-.96.36-.23.36-.83-.05,0-.1-.07-.16-.1-.05.07-.11.1-.21.03.01.09-.1.25-.46.24-.06-.41-.2.16-.34-.33.26.06.44-.04.58-.22-.08-.06-.16-.14-.23-.16.14-.13.25-.12.36-.06.28-.55.36-1.39.77-1.28-.22-.18.08-.28-.31-.52.74-.9,1.78-1.05,1.42-2.14.5.6.4.72.9.55-.41-.06-.42-.46-.54-.77-.04,0-.08,0-.1-.1,0-.02.01-.02.02-.03-.03-.05-.05-.1-.09-.14.06-.02.11,0,.15.01.15-.22.47.25.61-.13-.74,0,.11-.49-.31-.69h.51c.05-.63-.07-2.49.41-2.69-.08.2-.15.73-.19,1.27.39-.4.65-.31,1.02-.46-.61-.32-.11-.3-.56-1.03.21-.4.62.37.84-.13-1.15-.58-.2-.81.23-1.52.23.05.26.29.48.35.07-.33-.46-.33-.56-.51.29-.27.31-1.31.31-1.49h0c0-.1.36-.07.24-.02,2.86-12.53-4.47-17.03-8.94-17.07-6.12-.06-13.55,7.19-16.81,10.87,0,0,.74-5.92,2.58-12.56.79-2.85,2.23-6.5,2.78-7.89l.37.07c9.16,2.44,17.3-13.32,25.02-18.71.05.04,1-.31,1.04-.34.06.05.52-.07.71-.16.07.02,1-.36,1.12-.39.08,0,.7-.33.79-.37.01-.2,1.26-.53,1.12-.4.04.04,3.5-.27,3.52-.24.21-.08.77-.08.8,0,.08-.03.37-.04.39,0,.1-.03.36-.03.41,0,.09-.04,1.28-.22,1.54-.4,0-.06.6-1.14.4-1.22ZM.73,18.09h0,0s0,0,0,0ZM1.6,17.52c.06-.09.12-.17.12-.25,0,.04.02.09.03.13-.05.03-.1.08-.15.12ZM1.7,17.18c-.03-.06-.09-.11-.19-.18.24-.31.09-.43.34-.13-.15.11-.17.2-.15.3ZM4.44,20.18c.41-.34-.21-.13.18-.5.08.29-.3.2.29.45-.1.17-.23.26-.47.05ZM42.01,50.33c-.41.07-1.58.15-2.43-.15-1.87-.63-3.83-3.62-4.06-5.74-.18-1.58-.04-4.17,1.07-5.8.22-.3.48-.55.77-.76,0,.03,0,.04.03.07l.03-.06s3.53-1.77,8.34-1.74c.29.02.62.03.98.03-.28,2.66.73,11.77.78,11.83,0,0-4.32,2.39-5.51,2.32ZM56.42,90.35c-.23-.03,0-.44.13-.47,0,.16-.07.32-.13.47ZM60.32,89.37c.03.37-.15.54-.51.49.14-.51-.57-.22-.3-.86.19.2.29.49.82.36ZM70.05,67.67s.04.04.05.07c-.1-.04-.23-.06-.05-.07ZM77.97,51.04l.57.02c-.17.06-.4.1-.57-.02ZM78.31,50.23c.3.05.41.12.34.5-.3-.17-.58.48-.67-.02-.45-.27.68.5.33-.48Z"/>
  <path class="cls-1" d="M75.38,58.33s.09-.02.14-.03c-.04-.1-.09-.19-.16-.23-.02.03-.04.06-.06.13.03.04.07.08.09.13Z"/>
</svg>