<svg preserveAspectRatio="none" width="100%" height="100%" overflow="visible" style="display: block;" viewBox="0 0 351.302 24.0612" fill="none" xmlns="http://www.w3.org/2000/svg">
<g id="Group">
<path id="Vector" d="M80.14 1.12997L96.7899 10.5999C97.8999 11.2299 97.8999 12.8299 96.7899 13.4599L80.14 22.9299C78.05 24.1199 75.45 22.6099 75.45 20.1999V3.85995C75.45 1.44995 78.05 -0.0600285 80.14 1.12997Z" fill="var(--fill-0, #E31E79)"/>
<path id="Vector_2" d="M148.36 2.86058L160.76 11.6106L161.1 2.84056C161.14 1.92056 161.74 1.66048 162.43 2.26048L172.71 11.2206C173.19 11.6406 173.19 12.3905 172.71 12.8005L162.43 21.7605C161.73 22.3705 161.13 22.1105 161.1 21.1805L160.76 12.4105L148.39 21.8806C147.68 22.4206 147.1 22.1406 147.1 21.2406V3.51048C147.1 2.66048 147.67 2.36057 148.37 2.85057L148.36 2.86058Z" fill="var(--fill-0, #828282)"/>
<path id="Vector_3" d="M24.71 2.86058L12.31 11.6106L11.97 2.84056C11.93 1.92056 11.33 1.66048 10.64 2.26048L0.36 11.2206C-0.12 11.6406 -0.12 12.3905 0.36 12.8005L10.64 21.7605C11.34 22.3705 11.94 22.1105 11.97 21.1805L12.31 12.4105L24.6799 21.8806C25.3899 22.4206 25.97 22.1406 25.97 21.2406V3.51048C25.97 2.66048 25.4 2.36057 24.7 2.85057L24.71 2.86058Z" fill="var(--fill-0, #828282)"/>
<g id="Group_2">
<path id="Vector_4" d="M262.37 0C262.95 0.16 263.34 1.24999 263.24 1.85999C263.11 2.67999 262.13 2.54989 262.2 3.38989H237.97C236.73 3.38989 233.59 5.04 232.5 5.88C230.41 7.5 228.21 11.1999 228.31 13.8899C228.43 13.9999 230.5 13.56 230.32 14.7L226.63 19.83C225.68 20.24 224.84 17.9599 224.38 17.3099C223.59 16.1899 222.5 15.5799 222.55 14.0599L224.93 13.8899C225.32 8.57989 229.61 2.91 234.57 1C234.94 0.86 237.8 0 237.98 0H262.38H262.37Z" fill="var(--fill-0, #828282)"/>
<path id="Vector_5" d="M231.7 24.0612L231 22.2313L232.54 21.0013L256.29 21.0212C261.31 19.7212 264.76 16.4912 266.27 11.5212H264.24C263.64 10.9012 266.57 6.79119 267.18 6.17119C267.36 5.99119 267.22 5.71124 267.8 5.72124C268.25 5.68124 268.49 5.83125 268.82 6.10125C269.1 6.34125 272.1 10.7113 272.05 11.0013C271.4 11.8613 270.27 11.4212 269.35 11.5312C269.32 12.0812 269.3 12.6312 269.11 13.1512C267.61 17.2412 264.7 20.8112 260.77 22.7812C260.33 23.0012 257.63 24.0612 257.31 24.0612H231.72H231.7Z" fill="var(--fill-0, #828282)"/>
</g>
<g id="Group_3">
<path id="Vector_6" d="M334.81 23.2384L329.23 17.8083C327.32 17.4583 324.64 18.1083 322.84 17.7683C322.67 17.7383 321.7 16.9184 321.67 16.8484C321.48 16.3884 321.46 8.99837 321.58 8.10837C322 4.97837 327.24 6.89831 329.41 6.16831C331.23 4.93831 333.38 1.73836 335.12 0.71836C336.64 -0.17164 337.89 0.998306 338.07 2.53831C338.77 8.47831 337.52 15.7383 338.07 21.8183C337.86 23.3783 336.12 24.1984 334.8 23.2384H334.81Z" fill="var(--fill-0, #828282)"/>
<path id="Vector_7" d="M347.39 22.0597C347.19 22.2397 347.13 22.6397 346.82 22.7497C345.8 23.0997 344.87 22.3797 345.04 21.2997C345.06 21.1997 346.24 20.3397 346.44 20.0597C349.88 15.1897 349.97 9.27963 346.56 4.38963C346 3.57963 344.87 3.17966 345.05 2.04966C345.05 1.98966 345.82 1.25963 346.02 1.26963C346.79 1.28963 347.08 1.77963 347.57 2.26963C352.52 7.26963 352.63 17.3397 347.4 22.0697L347.39 22.0597Z" fill="var(--fill-0, #828282)"/>
<path id="Vector_8" d="M341.76 19.087C340.65 17.947 342.18 17.217 342.6 16.587C343.09 15.857 343.1 15.347 343.38 14.627C343.47 14.407 343.88 14.5169 343.94 14.0069C344.19 12.0469 343.89 9.74689 342.91 8.01689C342.42 7.15689 340.6 6.10697 341.85 5.21697C343.77 3.85697 345.93 8.947 346.13 10.377C346.24 11.127 346.26 12.987 346.16 13.727C345.98 15.047 343.42 20.797 341.75 19.087H341.76Z" fill="var(--fill-0, #828282)"/>
</g>
</g>
</svg>
