<?xml version="1.0" encoding="UTF-8"?>
<svg id="HEADER_FOOTER" data-name="HEADER FOOTER" xmlns="http://www.w3.org/2000/svg" viewBox="0 0 58.09 65.84">
  <defs>
    <style>
      .cls-1 {
        fill: #fff;
      }

      .cls-2 {
        fill: #333;
      }
    </style>
  </defs>
  <g>
    <path class="cls-2" d="M44.29,24.55c-6.96-7.29-15.57-13.28-22.28-20.76.21-.19.39-.44.5-.75.96-2.56-3.68-4.36-4.64-1.79-.76,2.03,1.97,3.54,3.63,2.82,4.07,6.02,11.92,12.26,17.09,17.35,1.24,1.22,2.47,2.47,3.62,3.76.68-.25,1.37-.46,2.07-.63Z"/>
    <path class="cls-2" d="M53.46,60.06c.34-.44.69-.85,1.08-1.23.02-.02.04-.03.06-.05-.02-.02-.03-.04-.05-.06.48-.67.99-1.31,1.41-2.05,3.28-5.78,2.18-13.13.69-19.41-.41-1.72-1.41-5.98-1.46-6.25-.14-.71-1.39-3.56-2.38-4.57-.62-1.01-3.63-2.73-5.19-3.25-2.17-.72-4.22-1.27-6.47-1.5,0-.05-20.95-1.19-29.03,1.23-5.75,1.72-10.27,3.3-11.7,10.74-.53,2.76-.47,6.78-.3,9.6.08,1.3.22,4.12.31,5.5-.09,4.31,2.96,9.08,6.14,11.16.81.53,1.67.93,2.5,1.41-.05.04-.09.09-.14.14.58.17,1.15.41,1.7.71.2.11.37.25.52.42.13-.08.26-.16.4-.21,4.36,1.58,8.9,2.48,13.46,2.98,6.59.72,14.06.87,20.48-1.12,2.11-.66,4.24-1.58,6.11-2.93.39-.68,1.01-1.16,1.88-1.24Z"/>
  </g>
  <g>
    <path class="cls-1" d="M49.89,35.2c.42.58.12,1.81-.52,1.81-1.84,0-3.72-.32-5.57-.44-1.91-.12-3.91.14-5.76-.54.31-.42.99-.51,1.41-.55,2.92-.28,6.04-.32,8.98-.43.42-.01,1.1-.36,1.46.14Z"/>
    <path class="cls-1" d="M38.5,39.1c.86.06,1.72.06,2.59.1,2.25.1,4.46.06,6.72,0,.42,0,.84-.19,1.31-.11,1.43.22,1.2,1.96-.25,2.06-1.82.13-4.63-.16-6.47-.43-.67-.1-3.43-.7-3.81-1.25-.09-.14-.1-.19-.08-.38Z"/>
    <path class="cls-1" d="M38.06,31.96h3.08c2.55-.02,5.21-.96,7.7-1.2.57-.05,1.64-.11,1.68.94.06,1.48-2.12.97-2.83,1.02-2.59.16-5.18.55-7.78.1-.59-.1-1.45-.25-1.86-.85Z"/>
    <path class="cls-1" d="M30.15,31.8c.49.36,1.44,1.01,1.89,1.48.14.15.36.78.48.89,5.52,5.3,2.82,15.34-3.98,18.58-6.09,2.9-17.33,1.24-19.22-5.97-.07-.27-.29-1.15-.27-1.36,0-.14.12-.29.27-.26.48.77.7,1.66,1.17,2.44,3.77,6.38,15.55,6.53,20.08.95,7.78-9.6-4.09-21.48-15.17-16.96-4.75,1.94-4.69,4.76-7,8.37-.09.14-.32.61-.52.57-.23-.04-.06-.92-.03-1.1,1.49-9.5,11.57-14.09,20.29-9.21.9.5,1.32,1.03,2.03,1.56Z"/>
    <path class="cls-1" d="M19.84,36.6c2.48-.32,5.02,1.59,5.61,3.84,1.22,4.64-4.58,7.78-7.89,3.98-.24-.27-1.26-1.62-.85-1.89.6-.39.87.57,1.13.87,2.21,2.52,6.38.96,5.56-2.29-.4-1.6-2.49-2.81-4.12-2.14-.64.26-1.06,1.16-1.89.89-.44-.32-.31-.71-.19-1.15.32-1.16,1.42-1.94,2.64-2.1Z"/>
    <path class="cls-1" d="M26.57,34.8c.32.25.93.71,1.22,1.03.09.1.23.54.31.62,3.57,3.69,1.82,10.67-2.57,12.93-3.94,2.02-11.21.86-12.43-4.15-.05-.19-.19-.8-.18-.95,0-.1.08-.2.18-.18.31.54.45,1.15.75,1.7,2.44,4.44,10.06,4.55,12.98.66,5.03-6.68-2.65-14.95-9.81-11.8-3.07,1.35-3.03,3.32-4.53,5.83-.06.1-.21.43-.34.4-.15-.03-.04-.64-.02-.76.97-6.61,7.48-9.81,13.12-6.41.58.35.85.72,1.31,1.08Z"/>
  </g>
</svg>