<svg preserveAspectRatio="none" width="100%" height="100%" overflow="visible" style="display: block;" viewBox="0 0 2043.98 173.179" fill="none" xmlns="http://www.w3.org/2000/svg">
<g id="Vector" opacity="0.9" filter="url(#filter0_d_0_144)">
<path d="M1972.98 31.7487C1950.54 30.8687 1928.21 29.8487 1905.75 30.0187C1853.3 30.3987 1800.88 32.3387 1748.43 32.8387C1722.53 33.0787 1696.63 33.0787 1670.74 33.5787C1644.63 34.0887 1618.52 34.7687 1592.4 35.0687C1571.94 35.2987 1551.47 35.2787 1531.02 34.7587C1524.36 34.6587 1517.7 34.5387 1511.04 34.3987C1509.89 34.3987 1508.75 34.4187 1507.6 34.4287C1484.6 34.5387 1461.6 34.1087 1438.61 33.5487C1428.39 33.2987 1418.15 33.1987 1407.94 32.5487C1404.08 32.2987 1400.22 31.9987 1396.37 31.6587C1359.34 31.0887 1322.3 31.2587 1285.32 33.3287C1282.86 33.7287 1280.38 34.0587 1277.87 34.2687C1276.62 34.7687 1275.38 35.2787 1274.16 35.8487C1273.35 36.2187 1272.65 35.0187 1273.46 34.6487C1273.49 34.6387 1273.52 34.6187 1273.55 34.6087C1252.74 36.2187 1231.82 36.8187 1210.96 36.9087C1166.12 37.1087 1121.25 34.9787 1076.51 32.1987C1058.18 31.0587 1031.97 36.1487 1013.62 35.2387L902.96 33.7387C871.27 34.9187 838.51 31.4887 806.77 31.9487C716.59 33.2487 626.58 36.8087 536.38 34.4187C491.81 33.2387 447.25 31.6287 402.67 31.3187C359.33 31.0187 316.01 32.2487 272.66 31.6987C191.81 30.6687 110.6 27.7787 30 35.6287V143.179H2013.98V31.7987C2000.33 32.6287 1986.58 32.2687 1972.98 31.7387V31.7487Z" fill="var(--fill-0, white)"/>
</g>
<defs>
<filter id="filter0_d_0_144" x="0" y="6.64532e-10" width="2043.98" height="173.179" filterUnits="userSpaceOnUse" color-interpolation-filters="sRGB">
<feFlood flood-opacity="0" result="BackgroundImageFix"/>
<feColorMatrix in="SourceAlpha" type="matrix" values="0 0 0 0 0 0 0 0 0 0 0 0 0 0 0 0 0 0 127 0" result="hardAlpha"/>
<feOffset/>
<feGaussianBlur stdDeviation="15"/>
<feColorMatrix type="matrix" values="0 0 0 0 0 0 0 0 0 0 0 0 0 0 0 0 0 0 0.25 0"/>
<feBlend mode="normal" in2="BackgroundImageFix" result="effect1_dropShadow_0_144"/>
<feBlend mode="normal" in="SourceGraphic" in2="effect1_dropShadow_0_144" result="shape"/>
</filter>
</defs>
</svg>
