<svg preserveAspectRatio="none" width="100%" height="100%" overflow="visible" style="display: block;" viewBox="0 0 278.748 311.495" fill="none" xmlns="http://www.w3.org/2000/svg">
<g id="Vector" opacity="0.95" filter="url(#filter0_d_0_148)">
<path d="M3.52255 151.965C1.78255 130.105 4.61253 108.225 8.69253 86.7754C10.5025 77.2454 11.9125 67.3654 15.7725 58.3954C18.9125 51.0854 23.2925 44.2654 28.7525 38.4754C47.4825 18.6354 74.6825 8.82545 101.513 5.07545C101.763 5.13545 102.033 5.14544 102.353 5.06544C102.673 4.98544 103.003 4.90545 103.323 4.82545C107.023 4.34545 110.723 3.97543 114.383 3.71543C114.933 3.67543 115.303 3.44543 115.533 3.11543C127.363 2.49543 139.193 4.51544 151.113 5.78544C164.253 7.18544 178.133 7.71543 190.603 12.4954C190.633 13.1154 190.962 13.7055 191.712 13.9855C206.202 19.3455 219.663 27.5854 230.483 38.6854C242.873 51.3954 252.093 67.1054 257.023 84.1854C261.983 101.385 262.462 118.895 261.072 136.635C260.412 145.145 259.623 154.105 256.683 162.175C253.503 170.885 246.602 176.945 240.192 183.325C233.122 190.355 226.803 198.125 219.613 205.045C211.553 212.805 202.383 218.705 192.413 223.735C182.443 228.765 171.983 232.885 161.053 235.255C150.563 237.525 139.903 237.955 129.273 239.195C118.663 240.435 107.932 242.005 97.2225 241.655C93.5125 241.535 89.8925 241.105 86.3225 240.455C70.5325 245.075 39.6825 255.525 42.2425 294.495C29.5425 267.595 38.1525 236.275 44.6925 225.835C36.9525 221.725 29.7825 216.685 23.9325 210.285C17.2625 202.965 13.3425 194.175 10.2225 184.845C6.6725 174.205 4.40254 163.145 3.51254 151.965H3.52255Z" fill="var(--fill-0, white)"/>
</g>
<defs>
<filter id="filter0_d_0_148" x="7.58383e-09" y="1.025e-09" width="278.748" height="311.495" filterUnits="userSpaceOnUse" color-interpolation-filters="sRGB">
<feFlood flood-opacity="0" result="BackgroundImageFix"/>
<feColorMatrix in="SourceAlpha" type="matrix" values="0 0 0 0 0 0 0 0 0 0 0 0 0 0 0 0 0 0 127 0" result="hardAlpha"/>
<feOffset dx="7" dy="7"/>
<feGaussianBlur stdDeviation="5"/>
<feColorMatrix type="matrix" values="0 0 0 0 0 0 0 0 0 0 0 0 0 0 0 0 0 0 0.1 0"/>
<feBlend mode="normal" in2="BackgroundImageFix" result="effect1_dropShadow_0_148"/>
<feBlend mode="normal" in="SourceGraphic" in2="effect1_dropShadow_0_148" result="shape"/>
</filter>
</defs>
</svg>
